<svg xmlns="http://www.w3.org/2000/svg"
    width="108"
    height="108"
    viewBox="0 0 108 108">
    <path
        fill="#ffffff"
        d="m54,28.31a25.69,25.69 0,0 0,-25.69 25.69,25.69 25.69,96.57 0,0 0.09,2l13.8,-13.8 0.01,0.01a16.69,16.69 67.01,0 1,11.79 -4.9l0,0a16.69,16.69 0,0 1,16.63 15.33l7.48,-7.48a25.69,25.69 108.37,0 0,-24.1 -16.86zM79.62,52.14 L65.8,65.96 65.72,65.88A16.69,16.69 69.22,0 1,54 70.69,16.69 16.69,78.04 0,1 37.39,55.5l-7.46,7.45a25.69,25.69 52.5,0 0,24.07 16.74,25.69 25.69,0 0,0 25.69,-25.69 25.69,25.69 74.06,0 0,-0.07 -1.86z"
        stroke-width="0"
        stroke="#999999" />
    <path
        fill="#ffffff"
        d="M54,54m-6.57,0a6.57,6.57 0,1 1,13.14 0a6.57,6.57 0,1 1,-13.14 0"
        stroke-width="0"
        stroke="#999999" />
</svg>
